<svg xmlns="http://www.w3.org/2000/svg" enable-background="new 0 0 50 50" viewBox="0 0 50 50" id="workspace">
  <path d="M37.56011 27.69H12.18023c1.18994-2.96008 3.47998-5.47009 6.67993-5.47009h12C34.07012 22.21991 36.36016 24.72992 37.56011 27.69zM17.23003 10.84003c0-4.28003 3.42017-7.76001 7.64014-7.76001 4.20996 0 7.63989 3.47998 7.63989 7.76001 0 4.08997-3.26978 8.65991-7.63989 8.65991C20.49029 19.49994 17.23003 14.92999 17.23003 10.84003z"></path>
  <g>
    <path d="M49.00005,45.91998c0,0.54993-0.44995,1-1,1h-46c-0.5498,0-1-0.45007-1-1c0-0.55994,0.4502-1,1-1H12.0501
			L9.67022,30.86005c-0.05005-0.29004,0.03003-0.59009,0.21997-0.81006C10.08013,29.82001,10.36016,29.69,10.6502,29.69h28.68994
			c0.30005,0,0.58008,0.13,0.77002,0.35999c0.18994,0.21997,0.27002,0.52002,0.21997,0.81006l-2.38989,14.05994h10.05981
			C48.5501,44.91998,49.00005,45.36005,49.00005,45.91998z"></path>
  </g>
</svg>
