<svg xmlns="http://www.w3.org/2000/svg" viewBox="0 0 640 360" width="640" height="360">
    <defs>
        <style>
            .axis { stroke: #1a1a1a; stroke-width: 2; fill: none; }
            .grid { stroke: #cccccc; stroke-width: 1; stroke-dasharray: 4 8; fill: none; }
            .label { font-family: Arial, sans-serif; font-size: 14px; fill: #1a1a1a; }
            .series { fill: none; stroke: #4b6cc1; stroke-width: 4; }
            .point { fill: #5e81f4; stroke: white; stroke-width: 2; }
        </style>
    </defs>
    <rect width="640" height="360" fill="#f5f7fb" rx="18" ry="18" />
    <g transform="translate(80,40)">
        <line class="axis" x1="0" y1="0" x2="0" y2="260" />
        <line class="axis" x1="0" y1="260" x2="520" y2="260" />
        <g stroke="#cccccc" stroke-width="1" stroke-dasharray="4 8" fill="none">
            <line x1="0" y1="52" x2="520" y2="52" />
            <line x1="0" y1="104" x2="520" y2="104" />
            <line x1="0" y1="156" x2="520" y2="156" />
            <line x1="0" y1="208" x2="520" y2="208" />
        </g>
        <text class="label" x="-48" y="264">0</text>
        <text class="label" x="-68" y="212">50</text>
        <text class="label" x="-76" y="160">100</text>
        <text class="label" x="-76" y="108">150</text>
        <text class="label" x="-76" y="56">200</text>
        <text class="label" x="-22" y="-12">Reward</text>
        <text class="label" x="500" y="284">Episodes</text>
        <polyline class="series" points="0,230 65,220 130,214 195,198 260,178 325,154 390,138 455,120 520,90" />
        <g>
            <circle class="point" cx="0" cy="230" r="6" />
            <circle class="point" cx="195" cy="198" r="6" />
            <circle class="point" cx="325" cy="154" r="6" />
            <circle class="point" cx="520" cy="90" r="6" />
        </g>
        <text class="label" x="150" y="310">Behavior cloning reaches stable performance after ~200 episodes</text>
    </g>
    <text class="label" x="120" y="32" font-size="18" font-weight="bold">Lunar Lander Behavior Cloning Reward Progression</text>
</svg>
