<?xml version="1.0" encoding="iso-8859-1"?>
<!-- Uploaded to: SVG Repo, www.svgrepo.com, Generator: SVG Repo Mixer Tools -->
<svg height="800px" width="800px" version="1.1" id="Layer_1" xmlns="http://www.w3.org/2000/svg" xmlns:xlink="http://www.w3.org/1999/xlink" 
	 viewBox="0 0 460 460" xml:space="preserve">
<g id="XMLID_1118_">
	<g id="Body">
		<path id="XMLID_351_" style="fill:#66646D;" d="M460,30v380c0,16.569-13.431,30-30,30h-30c5.523,0,10,4.477,10,10s-4.477,10-10,10
			h-40c-5.523,0-10-4.477-10-10s4.477-10,10-10H100c5.523,0,10,4.477,10,10s-4.477,10-10,10H60c-5.523,0-10-4.477-10-10
			s4.477-10,10-10H30c-16.569,0-30-13.431-30-30V30C0,13.431,13.431,0,30,0h400C446.569,0,460,13.431,460,30z"/>
		<path id="XMLID_1156_" style="fill:#3C3B42;" d="M110,450L110,450c0,5.523-4.477,10-10,10H60c-5.523,0-10-4.477-10-10l0,0
			c0-5.523,4.477-10,10-10h40C105.523,440,110,444.477,110,450z"/>
		<path id="XMLID_1123_" style="fill:#3C3B42;" d="M410,450L410,450c0,5.523-4.477,10-10,10h-40c-5.523,0-10-4.477-10-10l0,0
			c0-5.523,4.477-10,10-10h40C405.523,440,410,444.477,410,450z"/>
		<path id="XMLID_973_" style="fill:#3C3B42;" d="M370,360L370,360c0,5.523-4.477,10-10,10H100c-5.523,0-10-4.477-10-10l0,0
			c0-5.523,4.477-10,10-10h260C365.523,350,370,354.477,370,360z"/>
		<path id="XMLID_1183_" style="fill:#C3C9C7;" d="M430,0H30C13.431,0,0,13.431,0,30v380c0,16.569,13.431,30,30,30h400
			c16.569,0,30-13.431,30-30V30C460,13.431,446.569,0,430,0z M410,377c0,7.18-5.82,13-13,13h-77l0,0c0-11.046-8.954-20-20-20H160
			c-11.046,0-20,8.954-20,20l0,0H63c-7.18,0-13-5.82-13-13V63c0-7.18,5.82-13,13-13h334c7.18,0,13,5.82,13,13V377z"/>
	</g>
	<g id="Active_part">
		<path id="XMLID_964_" style="fill:#D7F2F2;" d="M230,170L230,170c-2.761,0-5-2.239-5-5V90h10v75C235,167.761,232.761,170,230,170z
			"/>
		<path id="XMLID_746_" style="fill:#3C3B42;" d="M250,60v20l-7.236,14.472C241.07,97.86,237.607,100,233.82,100h-7.639
			c-3.788,0-7.25-2.14-8.944-5.528L210,80V60H250z"/>
		<path id="XMLID_958_" style="fill:#AAAFAD;" d="M260,80h-60c-11.046,0-20-8.954-20-20V0h100v60C280,71.046,271.046,80,260,80z"/>
		<path id="XMLID_960_" style="fill:#3C3B42;" d="M255,40h-50c-2.761,0-5-2.239-5-5l0,0c0-2.761,2.239-5,5-5h50c2.761,0,5,2.239,5,5
			l0,0C260,37.761,257.761,40,255,40z"/>
		<path id="XMLID_962_" style="fill:#3C3B42;" d="M255,60h-50c-2.761,0-5-2.239-5-5l0,0c0-2.761,2.239-5,5-5h50c2.761,0,5,2.239,5,5
			l0,0C260,57.761,257.761,60,255,60z"/>
	</g>
	<g id="Print_object">
		<path id="XMLID_947_" style="fill:#65849B;" d="M330,250l-80,100h-40l-80-100l40-60h120L330,250z"/>
		<path id="XMLID_753_" style="fill:#7FA3BA;" d="M330,250H230v100h-20l-80-100l40-60h60h60L330,250z"/>
		<path id="XMLID_966_" style="fill:#95BDBF;" d="M230,250H130l40-60h60V250z"/>
		<path id="XMLID_767_" style="fill:#95BDBF;" d="M270,250l-30,100h-20l-30-100l30-60h20L270,250z"/>
		<path id="XMLID_968_" style="fill:#ADD8D7;" d="M270,250h-80l30-60h20L270,250z"/>
	</g>
</g>
</svg>