<?xml version="1.0" encoding="iso-8859-1"?>
<!-- Uploaded to: SVG Repo, www.svgrepo.com, Generator: SVG Repo Mixer Tools -->
<svg fill="#000000" height="800px" width="800px" version="1.1" id="Layer_1" xmlns="http://www.w3.org/2000/svg" xmlns:xlink="http://www.w3.org/1999/xlink" 
	 viewBox="0 0 512 512" xml:space="preserve">
<g>
	<g>
		<path d="M439.416,70.347C404.319,24.326,351.222,0,285.866,0c-65.356,0-118.452,24.326-153.55,70.347
			c-22.472,29.467-37.055,66.773-43.056,109.518c-12.226,0.407-24.097,4.643-34.584,12.556
			c-17.437,13.158-28.268,34.679-28.268,56.162c0,29.677,25.966,99.214,62.965,120.2c7.661,4.345,15.587,6.518,23.399,6.518
			c1.428,0,2.851-0.098,4.269-0.243c6.532,15.026,14.019,29.35,22.392,42.694C177.567,478.529,229.572,512,285.866,512
			c56.294,0,108.3-33.471,146.434-94.248c33.868-53.977,53.291-123.923,53.291-191.905
			C485.592,163.729,469.624,109.958,439.416,70.347z M74.175,297.638c-9.877-21.083-14.376-40.208-14.376-49.055
			c0-11.054,5.885-22.636,14.992-29.509c2.886-2.178,6.798-4.388,11.56-5.348c-0.137,4.004-0.21,8.044-0.21,12.121
			c0,37.851,6.029,76.308,17.213,112.283C93.763,331.371,83.041,316.563,74.175,297.638z M269.171,381.503h-33.776v33.391h33.776
			v62.386c-88.995-14.053-149.639-138.795-149.639-251.434c0-53.957,13.97-101.989,39.336-135.251
			c25.964-34.046,63.023-53.027,110.303-56.579V381.503z M302.562,34.016c5.85,0.44,11.546,1.111,17.081,2.022v85.633l-17.081,9.668
			V34.016z M374.278,437.921l9.294-65.003l38.521-6.948C409.513,393.859,393.352,418.707,374.278,437.921z M353.928,344.334
			l-17.406,121.741c-10.766,5.505-22.112,9.335-33.96,11.206v-62.386h33.776v-33.391h-33.776V169.71l50.472-28.571V45.147
			c12.892,5.1,24.648,11.846,35.224,20.241v87.596h33.391v-49.54c19.785,32.249,30.551,75.042,30.551,122.403
			c0,34.61-5.736,70.359-16.248,103.693L353.928,344.334z"/>
	</g>
</g>
<g>
	<g>
		<path d="M373.201,203.788c-29.668,0-53.806,24.137-53.806,53.806c0,29.669,24.137,53.807,53.806,53.807
			c29.668,0,53.807-24.137,53.807-53.807C427.008,227.926,402.869,203.788,373.201,203.788z M373.201,278.009
			c-11.256,0-20.414-9.158-20.414-20.415c0-11.256,9.158-20.414,20.414-20.414c11.256,0,20.415,9.158,20.415,20.414
			C393.617,268.851,384.457,278.009,373.201,278.009z"/>
	</g>
</g>
<g>
	<g>
		<circle cx="373.203" cy="257.592" r="13.866"/>
	</g>
</g>
<g>
	<g>
		<path d="M197.152,171.071c-17.357,0-34.384,3.033-49.239,8.77l12.03,31.148c11.058-4.27,23.925-6.527,37.21-6.527
			s26.152,2.257,37.21,6.527l12.03-31.148C231.535,174.104,214.509,171.071,197.152,171.071z"/>
	</g>
</g>
<g>
	<g>
		<path d="M223.234,242.771c-1.574,1.218-3.543,1.95-5.685,1.95c-5.138,0-9.304-4.165-9.304-9.304c0-3.712,2.179-6.906,5.324-8.4
			c-4.526-3.563-10.232-5.693-16.439-5.693c-14.695,0-26.608,11.913-26.608,26.608c0,14.696,11.913,26.608,26.608,26.608
			c14.696,0,26.608-11.913,26.608-26.608C223.738,246.166,223.563,244.442,223.234,242.771z"/>
	</g>
</g>
</svg>