<?xml version="1.0" encoding="iso-8859-1"?>
<!-- Uploaded to: SVG Repo, www.svgrepo.com, Generator: SVG Repo Mixer Tools -->
<svg height="800px" width="800px" version="1.1" id="Layer_1" xmlns="http://www.w3.org/2000/svg" xmlns:xlink="http://www.w3.org/1999/xlink" 
	 viewBox="0 0 512 512" xml:space="preserve">
<g transform="translate(1 1)">
	<g>
		<polygon style="fill:#00DA6C;" points="383,502.467 502.467,502.467 502.467,451.267 383,451.267 		"/>
		<polygon style="fill:#00DA6C;" points="383,314.733 502.467,314.733 502.467,263.533 383,263.533 		"/>
		<polygon style="fill:#00DA6C;" points="400.067,451.267 485.4,451.267 485.4,314.733 400.067,314.733 		"/>
	</g>
	<g>
		<polygon style="fill:#00AD55;" points="485.4,502.467 502.467,502.467 502.467,451.267 485.4,451.267 		"/>
		<polygon style="fill:#00AD55;" points="485.4,314.733 502.467,314.733 502.467,263.533 485.4,263.533 		"/>
		<polygon style="fill:#00AD55;" points="468.333,451.267 485.4,451.267 485.4,314.733 468.333,314.733 		"/>
	</g>
	<path style="fill:#FFE100;" d="M444.44,229.4c-2.56,0-5.12-1.707-6.827-4.267L418.84,196.12c-2.56-4.267-1.707-9.387,2.56-11.947
		c4.267-2.56,9.387-1.707,11.947,2.56l18.773,29.013c2.56,4.267,1.707,9.387-2.56,11.947C447,228.547,446.147,229.4,444.44,229.4z"
		/>
	<path style="fill:#FDCC00;" d="M415.427,191.853L415.427,191.853c7.68-5.12,10.24-15.36,5.12-23.893l-13.653-21.333L377.88,165.4
		l13.653,21.333C397.507,195.267,407.747,196.973,415.427,191.853"/>
	<g>
		<path style="fill:#FFE100;" d="M357.4,50.2c0,18.773-15.36,34.133-34.133,34.133s-34.133-15.36-34.133-34.133
			s15.36-34.133,34.133-34.133S357.4,31.427,357.4,50.2"/>
		<polygon style="fill:#FFE100;" points="364.227,174.787 421.4,138.093 402.627,109.08 345.453,146.627 		"/>
	</g>
	<g>
		<path style="fill:#FDCC00;" d="M188.44,33.133c4.267,7.68,6.827,16.213,6.827,25.6v8.533h98.987
			c-3.413-5.12-5.12-11.093-5.12-17.067s1.707-11.947,5.12-17.067H188.44z"/>
		<path style="fill:#FDCC00;" d="M353.133,66.413c-5.973,10.24-16.213,17.067-29.013,17.92l35.84,52.907l29.013-18.773
			L353.133,66.413z"/>
	</g>
	<g>
		<path style="fill:#FFE100;" d="M144.067,297.667L144.067,297.667c-28.16,0-51.2-23.04-51.2-51.2V58.733
			c0-28.16,23.04-51.2,51.2-51.2s51.2,23.04,51.2,51.2v187.733C195.267,274.627,172.227,297.667,144.067,297.667"/>
		<path style="fill:#FFE100;" d="M195.267,229.4v15.36c0,25.6-18.773,49.493-44.373,52.907c-30.72,3.413-58.027-20.48-58.027-51.2
			V229.4c-18.773,0-34.133,15.36-34.133,34.133v136.533H229.4V263.533C229.4,244.76,214.04,229.4,195.267,229.4"/>
	</g>
	<g>
		<polygon style="fill:#FDCC00;" points="7.533,502.467 280.6,502.467 280.6,468.333 7.533,468.333 		"/>
		<polygon style="fill:#FDCC00;" points="24.6,468.333 263.533,468.333 263.533,434.2 24.6,434.2 		"/>
		<polygon style="fill:#FDCC00;" points="41.667,434.2 246.467,434.2 246.467,400.067 41.667,400.067 		"/>
	</g>
	<g>
		<path style="fill:#FFFFFF;" d="M109.933,246.467V58.733c0-25.6,18.773-46.08,42.667-50.347c-2.56-0.853-5.973-0.853-8.533-0.853
			c-28.16,0-51.2,23.04-51.2,51.2v187.733c0,28.16,23.04,51.2,51.2,51.2c2.56,0,5.973,0,8.533-0.853
			C128.707,292.547,109.933,272.067,109.933,246.467"/>
		<path style="fill:#FFFFFF;" d="M92.867,234.52v-5.12c-18.773,0-34.133,15.36-34.133,34.133v136.533H75.8V263.533
			C75.8,250.733,82.627,239.64,92.867,234.52"/>
		<polygon style="fill:#FFFFFF;" points="7.533,502.467 24.6,502.467 24.6,468.333 7.533,468.333 		"/>
		<polygon style="fill:#FFFFFF;" points="24.6,468.333 41.667,468.333 41.667,434.2 24.6,434.2 		"/>
		<polygon style="fill:#FFFFFF;" points="41.667,434.2 58.733,434.2 58.733,400.067 41.667,400.067 		"/>
	</g>
	<path d="M280.6,511H7.533C2.413,511-1,507.587-1,502.467v-34.133c0-5.12,3.413-8.533,8.533-8.533H280.6
		c5.12,0,8.533,3.413,8.533,8.533v34.133C289.133,507.587,285.72,511,280.6,511z M16.067,493.933h256v-17.067h-256V493.933z"/>
	<path d="M263.533,476.867H24.6c-5.12,0-8.533-3.413-8.533-8.533V434.2c0-5.12,3.413-8.533,8.533-8.533h238.933
		c5.12,0,8.533,3.413,8.533,8.533v34.133C272.067,473.453,268.653,476.867,263.533,476.867z M33.133,459.8H255v-17.067H33.133V459.8
		z"/>
	<path d="M246.467,442.733h-204.8c-5.12,0-8.533-3.413-8.533-8.533v-34.133c0-5.12,3.413-8.533,8.533-8.533h204.8
		c5.12,0,8.533,3.413,8.533,8.533V434.2C255,439.32,251.587,442.733,246.467,442.733z M50.2,425.667h187.733V408.6H50.2V425.667z"/>
	<path d="M144.067,306.2c-33.28,0-59.733-26.453-59.733-59.733V58.733C84.333,25.453,110.787-1,144.067-1S203.8,25.453,203.8,58.733
		v187.733C203.8,279.747,177.347,306.2,144.067,306.2z M144.067,16.067c-23.893,0-42.667,18.773-42.667,42.667v187.733
		c0,23.893,18.773,42.667,42.667,42.667s42.667-18.773,42.667-42.667V58.733C186.733,34.84,167.96,16.067,144.067,16.067z"/>
	<path d="M229.4,408.6H58.733c-5.12,0-8.533-3.413-8.533-8.533V263.533c0-23.893,18.773-42.667,42.667-42.667
		c5.12,0,8.533,3.413,8.533,8.533v17.067c0,11.093,4.267,22.187,12.8,29.867c9.387,9.387,22.187,13.653,35.84,11.947
		c21.333-2.56,36.693-22.187,36.693-44.373V229.4c0-5.12,3.413-8.533,8.533-8.533c23.893,0,42.667,18.773,42.667,42.667v136.533
		C237.933,405.187,234.52,408.6,229.4,408.6z M67.267,391.533h153.6v-128c0-11.093-6.827-20.48-17.067-23.893v5.12
		c0,30.72-22.187,57.173-52.053,61.44c-18.773,2.56-36.693-3.413-50.347-17.067c-11.093-11.947-17.067-26.453-17.067-42.667v-6.827
		c-10.24,3.413-17.067,12.8-17.067,23.893V391.533z"/>
	<path d="M323.267,92.867c-23.893,0-42.667-18.773-42.667-42.667s18.773-42.667,42.667-42.667c23.893,0,42.667,18.773,42.667,42.667
		S347.16,92.867,323.267,92.867z M323.267,24.6c-14.507,0-25.6,11.093-25.6,25.6s11.093,25.6,25.6,25.6
		c14.507,0,25.6-11.093,25.6-25.6S337.773,24.6,323.267,24.6z"/>
	<path d="M294.253,75.8h-98.987c-5.12,0-8.533-3.413-8.533-8.533v-8.533c0-7.68-1.707-14.507-5.973-21.333
		c-1.707-2.56-1.707-5.973,0-8.533c1.707-2.56,4.267-4.267,7.68-4.267h105.813c3.413,0,5.973,1.707,7.68,4.267s1.707,5.973,0,8.533
		c-3.413,4.267-4.267,8.533-4.267,12.8s0.853,8.533,3.413,12.8c1.707,2.56,1.707,5.973,0,8.533
		C299.373,74.093,296.813,75.8,294.253,75.8z M203.8,58.733h77.653c-0.853-2.56-0.853-5.973-0.853-8.533c0-2.56,0-5.973,0.853-8.533
		H201.24C202.947,46.787,203.8,52.76,203.8,58.733z"/>
	<path d="M169.667,340.333h-51.2c-5.12,0-8.533-3.413-8.533-8.533s3.413-8.533,8.533-8.533h51.2c5.12,0,8.533,3.413,8.533,8.533
		S174.787,340.333,169.667,340.333z"/>
	<path d="M186.733,374.467H101.4c-5.12,0-8.533-3.413-8.533-8.533s3.413-8.533,8.533-8.533h85.333c5.12,0,8.533,3.413,8.533,8.533
		S191.853,374.467,186.733,374.467z"/>
	<path d="M144.067,263.533c-5.12,0-8.533-3.413-8.533-8.533V50.2c0-5.12,3.413-8.533,8.533-8.533c5.12,0,8.533,3.413,8.533,8.533
		V255C152.6,260.12,149.187,263.533,144.067,263.533z"/>
	<path d="M364.227,183.32c-0.853,0-0.853,0-1.707,0c-2.56-0.853-4.267-1.707-5.12-3.413l-18.773-29.013
		c-2.56-4.267-1.707-9.387,2.56-11.947l57.173-36.693c1.707-0.853,4.267-1.707,6.827-0.853s4.267,1.707,5.12,3.413l18.773,29.013
		c2.56,4.267,1.707,9.387-2.56,11.947l-57.173,36.693C366.787,183.32,365.08,183.32,364.227,183.32z M357.4,149.187l9.387,14.507
		l42.667-28.16l-9.387-14.507L357.4,149.187z"/>
	<path d="M406.04,203.8L406.04,203.8c-8.533,0-17.067-4.267-21.333-11.947l-13.653-21.333c-0.853-1.707-1.707-4.267-0.853-6.827
		c0.853-2.56,1.707-4.267,3.413-5.12l29.013-18.773c4.267-2.56,9.387-1.707,11.947,2.56l13.653,21.333
		c3.413,5.973,5.12,12.8,3.413,19.627c-1.707,6.827-5.12,12.8-11.093,16.213C416.28,202.093,411.16,203.8,406.04,203.8z
		 M389.827,167.96l9.387,14.507c1.707,2.56,4.267,4.267,6.827,4.267l0,0c1.707,0,3.413-0.853,4.267-1.707
		c1.707-0.853,3.413-3.413,3.413-5.12c0.853-2.56,0-4.267-0.853-6.827l-9.387-14.507L389.827,167.96z"/>
	<path d="M434.2,229.4c-2.56,0-5.12-1.707-6.827-4.267l-18.773-28.16c-2.56-4.267-1.707-9.387,2.56-11.947
		c4.267-2.56,9.387-1.707,11.947,2.56L441.88,216.6c2.56,4.267,1.707,9.387-2.56,11.947C437.613,228.547,435.907,229.4,434.2,229.4z
		"/>
	<path d="M357.4,148.333L307.907,75.8h15.36c9.387,0,17.067-5.12,22.187-13.653L352.28,50.2l47.787,70.827L357.4,148.333z
		 M337.773,90.307l23.893,34.987l14.507-9.387L352.28,80.92C348.013,85.187,343.747,87.747,337.773,90.307z"/>
	<path d="M502.467,511H383c-5.12,0-8.533-3.413-8.533-8.533v-51.2c0-5.12,3.413-8.533,8.533-8.533h119.467
		c5.12,0,8.533,3.413,8.533,8.533v51.2C511,507.587,507.587,511,502.467,511z M391.533,493.933h102.4V459.8h-102.4V493.933z"/>
	<path d="M502.467,323.267H383c-5.12,0-8.533-3.413-8.533-8.533v-51.2c0-5.12,3.413-8.533,8.533-8.533h119.467
		c5.12,0,8.533,3.413,8.533,8.533v51.2C511,319.853,507.587,323.267,502.467,323.267z M391.533,306.2h102.4v-34.133h-102.4V306.2z"
		/>
	<path d="M485.4,459.8h-85.333c-5.12,0-8.533-3.413-8.533-8.533V314.733c0-5.12,3.413-8.533,8.533-8.533H485.4
		c5.12,0,8.533,3.413,8.533,8.533v136.533C493.933,456.387,490.52,459.8,485.4,459.8z M408.6,442.733h68.267V323.267H408.6V442.733z
		"/>
</g>
</svg>